<?xml version="1.0" encoding="iso-8859-1"?>
<!-- Generator: Adobe Illustrator 18.1.1, SVG Export Plug-In . SVG Version: 6.00 Build 0)  -->
<!DOCTYPE svg PUBLIC "-//W3C//DTD SVG 1.1//EN" "http://www.w3.org/Graphics/SVG/1.1/DTD/svg11.dtd">
<svg version="1.1" xmlns="http://www.w3.org/2000/svg" xmlns:xlink="http://www.w3.org/1999/xlink" x="0px" y="0px"
	 viewBox="0 0 750 750" style="enable-background:new 0 0 750 750;" xml:space="preserve">
<g id="Layer_1">
</g>
<g id="Layer_2">
	<path style="fill:#313131;" d="M375,25C181.7,25,25,181.7,25,375s156.476,350,349.775,350c7.579,0,15.225-0.659,22.225-1.134V463
		h-89V359h89v-75.709c0-88.33,54.254-136.428,133.052-136.428c37.743,0,69.948,2.81,79.948,4.066v92.31l-54.752,0.025
		c-42.853,0-51.248,20.364-51.248,50.246V359h102.233l-13.308,104H504v237.133C633,648.736,724.985,522.682,724.985,375
		C724.985,181.7,568.3,25,375,25z"/>
</g>
</svg>
