<?xml version="1.0" encoding="iso-8859-1"?>
<!-- Generator: Adobe Illustrator 18.1.1, SVG Export Plug-In . SVG Version: 6.00 Build 0)  -->
<!DOCTYPE svg PUBLIC "-//W3C//DTD SVG 1.1//EN" "http://www.w3.org/Graphics/SVG/1.1/DTD/svg11.dtd">
<svg version="1.1" xmlns="http://www.w3.org/2000/svg" xmlns:xlink="http://www.w3.org/1999/xlink" x="0px" y="0px"
	 viewBox="0 0 750 750" style="enable-background:new 0 0 750 750;" xml:space="preserve">
<g id="Layer_1">
</g>
<g id="Layer_2">
	<path style="fill:#313131;" d="M375,25C181.7,25,25,181.7,25,375s156.7,350,350,350s350-156.7,350-350S568.3,25,375,25z
		 M248.544,471.428c-54.856,0.362-98.136-42.838-97.677-97.497c0.449-53.448,43.654-95.655,97.616-95.36
		c51.694,0.282,93.955,43.638,93.965,96.399C342.46,427.745,300.265,471.087,248.544,471.428z M502.8,471.331
		c-52.014,0.435-94.839-42.253-95.305-95.002c-0.479-54.193,41.884-97.824,94.825-97.663c54.085,0.165,96.698,42.462,96.816,96.097
		C599.254,428.437,556.914,470.879,502.8,471.331z"/>
</g>
</svg>
