<?xml version="1.0" encoding="iso-8859-1"?>
<!-- Generator: Adobe Illustrator 18.1.1, SVG Export Plug-In . SVG Version: 6.00 Build 0)  -->
<!DOCTYPE svg PUBLIC "-//W3C//DTD SVG 1.1//EN" "http://www.w3.org/Graphics/SVG/1.1/DTD/svg11.dtd">
<svg version="1.1" xmlns="http://www.w3.org/2000/svg" xmlns:xlink="http://www.w3.org/1999/xlink" x="0px" y="0px"
	 viewBox="0 0 750 750" style="enable-background:new 0 0 750 750;" xml:space="preserve">
<g id="Layer_1">
</g>
<g id="Layer_2">
	<g>
		<path style="fill:#313131;" d="M502.679,374.962c0,70.529-57.162,127.703-127.681,127.703
			c-70.515,0-127.681-57.181-127.681-127.711c0-11.039,1.562-21.955,4.194-31.955H215v175.643c0,8.802,7.531,16.357,16.359,16.357
			h287.282c8.828,0,16.359-7.555,16.359-16.357V343h-36.508C501.124,353,502.679,363.924,502.679,374.962z"/>
		<path style="fill:#313131;" d="M518.641,215h-47.872c-8.817,0-15.769,7.533-15.769,16.342v47.891
			c0,8.81,6.952,15.767,15.769,15.767h47.872c8.828,0,16.359-6.957,16.359-15.767v-47.891C535,222.533,527.469,215,518.641,215z"/>
		<path style="fill:#313131;" d="M374.998,454.805c44.078,0,79.812-35.741,79.812-79.812c0-44.078-35.734-79.801-79.812-79.801
			c-44.078,0-79.805,35.723-79.805,79.801C295.194,419.063,330.92,454.805,374.998,454.805z"/>
		<path style="fill:#313131;" d="M375,25C181.7,25,25,181.7,25,375s156.7,350,350,350s350-156.7,350-350S568.3,25,375,25z
			 M582,534.591C582,561.046,561.058,582,534.618,582H215.382C188.945,582,168,561.046,168,534.591V215.384
			c0-26.44,20.945-47.384,47.382-47.384h319.236c26.44,0,47.382,20.943,47.382,47.384V534.591z"/>
	</g>
</g>
</svg>
