<?xml version="1.0" encoding="iso-8859-1"?>
<!-- Generator: Adobe Illustrator 18.1.1, SVG Export Plug-In . SVG Version: 6.00 Build 0)  -->
<!DOCTYPE svg PUBLIC "-//W3C//DTD SVG 1.1//EN" "http://www.w3.org/Graphics/SVG/1.1/DTD/svg11.dtd">
<svg version="1.1" xmlns="http://www.w3.org/2000/svg" xmlns:xlink="http://www.w3.org/1999/xlink" x="0px" y="0px"
	 viewBox="0 0 750 750" style="enable-background:new 0 0 750 750;" xml:space="preserve">
<g id="Layer_1">
</g>
<g id="Layer_2">
	<path style="fill:#313131;" d="M375,25C181.7,25,25,181.7,25,375s156.7,350,350,350s350-156.7,350-350S568.3,25,375,25z
		 M588.209,280.107c0.19,4.253,0.287,8.53,0.287,12.829c0,131.053-99.751,282.17-282.168,282.17
		c-56.005,0-108.134-16.417-152.023-44.556c7.758,0.915,15.652,1.385,23.657,1.385c46.464,0,89.225-15.854,123.167-42.452
		c-43.397-0.801-80.022-29.475-92.642-68.875c6.055,1.157,12.268,1.779,18.659,1.779c9.044,0,17.806-1.212,26.128-3.478
		c-45.369-9.11-79.554-49.194-79.554-97.245c0-0.418,0.002-0.832,0.009-1.247c13.372,7.428,28.663,11.89,44.92,12.405
		c-26.61-17.785-44.119-48.14-44.119-82.546c0-18.175,4.89-35.211,13.427-49.858c48.914,60.001,121.989,99.484,204.411,103.619
		c-1.691-7.259-2.568-14.827-2.568-22.601c0-54.767,44.404-99.171,99.176-99.171c28.523,0,54.298,12.044,72.388,31.319
		c22.59-4.448,43.815-12.702,62.976-24.067c-7.404,23.158-23.129,42.594-43.606,54.867c20.062-2.396,39.175-7.729,56.96-15.616
		C624.399,248.657,607.585,266.124,588.209,280.107z"/>
</g>
</svg>
