<?xml version="1.0" encoding="iso-8859-1"?>
<!-- Generator: Adobe Illustrator 18.1.1, SVG Export Plug-In . SVG Version: 6.00 Build 0)  -->
<!DOCTYPE svg PUBLIC "-//W3C//DTD SVG 1.1//EN" "http://www.w3.org/Graphics/SVG/1.1/DTD/svg11.dtd">
<svg version="1.1" xmlns="http://www.w3.org/2000/svg" xmlns:xlink="http://www.w3.org/1999/xlink" x="0px" y="0px"
	 viewBox="0 0 750 750" style="enable-background:new 0 0 750 750;" xml:space="preserve">
<g id="Layer_1">
	<circle style="fill:#313131;" cx="375" cy="375" r="350"/>
</g>
<g id="Layer_2">
	<g id="Lozenge">
		<g>
			<path style="fill:#FFFFFF;" d="M594.607,285.395c0,0-4.379-30.884-17.816-44.484c-17.042-17.85-36.145-17.939-44.905-18.983
				c-62.714-4.533-156.789-4.533-156.789-4.533h-0.195c0,0-94.073,0-156.789,4.533c-8.761,1.045-27.856,1.133-44.905,18.983
				c-13.437,13.6-17.81,44.484-17.81,44.484s-4.482,36.267-4.482,72.534v34c0,36.267,4.482,72.534,4.482,72.534
				s4.373,30.884,17.81,44.484c17.048,17.85,39.442,17.286,49.416,19.157C258.479,531.542,375,532.606,375,532.606
				s94.172-0.142,156.886-4.675c8.76-1.045,27.863-1.133,44.905-18.983c13.437-13.6,17.816-44.484,17.816-44.484
				s4.475-36.267,4.475-72.534v-34C599.083,321.662,594.607,285.395,594.607,285.395z M328.732,433.132l-0.021-125.923
				l121.096,63.181L328.732,433.132z"/>
		</g>
	</g>
</g>
</svg>
