<svg xmlns="http://www.w3.org/2000/svg" xmlns:xlink="http://www.w3.org/1999/xlink" version="1.1" x="0px" y="0px" viewBox="0 0 236 61" xml:space="preserve" class="style0"><style>.style0{enable-background:	new 0 0 236 61;}.style1{fill:	#0054A4;}</style><g><g><path d="M68.574 4.948l0.352 7.453h-0.89c-0.172-1.312-0.407-2.25-0.704-2.812 c-0.484-0.906-1.128-1.574-1.933-2.004c-0.805-0.429-1.864-0.645-3.176-0.645h-4.477v24.282c0 2 0.2 3.2 0.6 3.7 c0.593 0.7 1.5 1 2.7 0.984h1.101v0.867H48.746v-0.867h1.125c1.344 0 2.297-0.406 2.859-1.219 c0.344-0.5 0.516-1.641 0.516-3.422V6.94h-3.821c-1.484 0-2.54 0.109-3.164 0.328c-0.812 0.298-1.508 0.868-2.086 1.7 c-0.579 0.843-0.922 1.984-1.032 3.421h-0.89l0.375-7.453H68.574z" class="style1"/><path d="M73.692 15.697v8.794h4.889c1.269 0 2.116-0.192 2.543-0.575c0.568-0.503 0.886-1.389 0.952-2.658 h0.607v7.744h-0.607c-0.153-1.083-0.307-1.778-0.46-2.083c-0.197-0.382-0.519-0.684-0.968-0.903 c-0.448-0.218-1.138-0.328-2.067-0.328h-4.889v7.334c0 1 0 1.6 0.1 1.796c0.088 0.2 0.2 0.4 0.5 0.5 c0.218 0.1 0.6 0.2 1.2 0.189h3.773c1.258 0 2.172-0.088 2.74-0.263c0.569-0.174 1.117-0.52 1.642-1.034 c0.678-0.678 1.372-1.701 2.083-3.068h0.657l-1.919 5.579H67.359v-0.607h0.787c0.525 0 1.022-0.125 1.493-0.377 c0.35-0.175 0.588-0.438 0.713-0.788c0.126-0.349 0.188-1.065 0.188-2.148V18.354c0-1.411-0.143-2.28-0.427-2.609 c-0.394-0.437-1.05-0.656-1.968-0.656h-0.787v-0.607h17.145l0.245 4.873h-0.64c-0.229-1.17-0.484-1.974-0.763-2.411 c-0.279-0.438-0.692-0.771-1.238-1.001c-0.438-0.164-1.21-0.246-2.314-0.246H73.692z" class="style1"/><path d="M86.566 14.482h6.038l13.601 16.686v-12.83c0-1.367-0.153-2.221-0.46-2.56 c-0.404-0.46-1.044-0.69-1.919-0.69h-0.771v-0.607h7.744v0.607h-0.788c-0.94 0-1.607 0.285-2.001 0.9 c-0.241 0.35-0.361 1.148-0.361 2.395V37.09h-0.591L92.391 19.175v13.7c0 1.4 0.1 2.2 0.4 2.6 c0.415 0.5 1.1 0.7 1.9 0.689h0.788v0.607h-7.744v-0.607h0.771c0.951 0 1.624-0.285 2.018-0.853 c0.241-0.351 0.361-1.149 0.361-2.396V17.403c-0.645-0.755-1.135-1.252-1.468-1.493c-0.334-0.241-0.823-0.466-1.469-0.673 c-0.317-0.099-0.799-0.149-1.444-0.149V14.482z" class="style1"/><path d="M111.8 14.482h6.038l13.601 16.686v-12.83c0-1.367-0.153-2.221-0.46-2.56 c-0.404-0.46-1.044-0.69-1.919-0.69h-0.771v-0.607h7.744v0.607h-0.787c-0.941 0-1.608 0.285-2.001 0.9 c-0.241 0.35-0.361 1.148-0.361 2.395V37.09h-0.591l-14.667-17.915v13.7c0 1.4 0.1 2.2 0.4 2.6 c0.416 0.5 1.1 0.7 1.9 0.689h0.787v0.607h-7.743v-0.607h0.771c0.952 0 1.624-0.285 2.019-0.853 c0.24-0.351 0.361-1.149 0.361-2.396V17.403c-0.646-0.755-1.135-1.252-1.469-1.493c-0.334-0.241-0.824-0.466-1.468-0.673 c-0.317-0.099-0.799-0.149-1.444-0.149V14.482z" class="style1"/><path d="M143.893 15.697v8.794h4.889c1.27 0 2.116-0.192 2.543-0.575c0.568-0.503 0.886-1.389 0.951-2.658 h0.608v7.744h-0.608c-0.153-1.083-0.305-1.778-0.459-2.083c-0.196-0.382-0.519-0.684-0.967-0.903 c-0.449-0.218-1.139-0.328-2.068-0.328h-4.889v7.334c0 1 0 1.6 0.1 1.796c0.087 0.2 0.2 0.4 0.5 0.5 c0.219 0.1 0.6 0.2 1.2 0.189h3.773c1.257 0 2.171-0.088 2.74-0.263c0.569-0.174 1.116-0.52 1.642-1.034 c0.678-0.678 1.371-1.701 2.082-3.068h0.657l-1.919 5.579H137.56v-0.607h0.787c0.525 0 1.023-0.125 1.494-0.377 c0.35-0.175 0.588-0.438 0.714-0.788c0.125-0.349 0.188-1.065 0.188-2.148V18.354c0-1.411-0.142-2.28-0.427-2.609 c-0.393-0.437-1.05-0.656-1.969-0.656h-0.787v-0.607h17.146l0.246 4.873h-0.639c-0.23-1.17-0.484-1.974-0.764-2.411 c-0.278-0.438-0.691-0.771-1.238-1.001c-0.438-0.164-1.208-0.246-2.314-0.246H143.893z" class="style1"/><path d="M172.143 13.975v7.694h-0.607c-0.197-1.477-0.549-2.652-1.059-3.528 c-0.508-0.875-1.233-1.569-2.174-2.083c-0.94-0.514-1.914-0.771-2.92-0.771c-1.138 0-2.078 0.347-2.822 1 c-0.743 0.695-1.116 1.485-1.116 2.372c0 0.7 0.2 1.3 0.7 1.854c0.68 0.8 2.3 1.9 4.8 3.3 c2.078 1.1 3.5 2 4.3 2.568c0.76 0.6 1.3 1.3 1.8 2.107c0.411 0.8 0.6 1.7 0.6 2.5 c0 1.684-0.653 3.136-1.96 4.356c-1.308 1.219-2.989 1.83-5.045 1.83c-0.645 0-1.252-0.049-1.821-0.148 c-0.339-0.055-1.041-0.253-2.108-0.598c-1.067-0.345-1.741-0.517-2.025-0.517c-0.273 0-0.49 0.081-0.648 0.2 c-0.159 0.164-0.276 0.503-0.352 1.017h-0.608v-7.63h0.608c0.284 1.6 0.7 2.8 1.1 3.6 c0.482 0.8 1.2 1.5 2.2 1.977c0.989 0.5 2.1 0.8 3.3 0.788c1.368 0 2.448-0.361 3.241-1.083 c0.794-0.722 1.189-1.575 1.189-2.56c0-0.547-0.15-1.1-0.451-1.657c-0.302-0.559-0.769-1.078-1.403-1.559 c-0.427-0.329-1.592-1.026-3.495-2.092c-1.903-1.066-3.257-1.917-4.061-2.552s-1.413-1.334-1.83-2.1 c-0.415-0.765-0.623-1.607-0.623-2.526c0-1.596 0.612-2.971 1.837-4.126c1.225-1.154 2.784-1.73 4.677-1.73 c1.181 0 2.4 0.3 3.8 0.869c0.613 0.3 1 0.4 1.3 0.41c0.286 0 0.518-0.084 0.698-0.254 c0.181-0.169 0.326-0.511 0.435-1.024H172.143z" class="style1"/><path d="M190.003 13.975v7.694h-0.607c-0.197-1.477-0.55-2.652-1.058-3.528 c-0.508-0.875-1.233-1.569-2.174-2.083c-0.94-0.514-1.914-0.771-2.92-0.771c-1.138 0-2.079 0.347-2.823 1 c-0.744 0.695-1.115 1.485-1.115 2.372c0 0.7 0.2 1.3 0.7 1.854c0.678 0.8 2.3 1.9 4.8 3.3 c2.078 1.1 3.5 2 4.3 2.568c0.76 0.6 1.3 1.3 1.8 2.107c0.409 0.8 0.6 1.7 0.6 2.5 c0 1.684-0.655 3.136-1.961 4.356c-1.307 1.219-2.989 1.83-5.046 1.83c-0.646 0-1.251-0.049-1.82-0.148 c-0.339-0.055-1.043-0.253-2.109-0.598c-1.065-0.345-1.742-0.517-2.025-0.517c-0.275 0-0.491 0.081-0.647 0.2 c-0.16 0.164-0.278 0.503-0.354 1.017h-0.607v-7.63h0.607c0.285 1.6 0.7 2.8 1.1 3.6 c0.481 0.8 1.2 1.5 2.2 1.977c0.99 0.5 2.1 0.8 3.3 0.788c1.366 0 2.447-0.361 3.24-1.083 c0.792-0.722 1.19-1.575 1.19-2.56c0-0.547-0.151-1.1-0.452-1.657c-0.301-0.559-0.768-1.078-1.403-1.559 c-0.426-0.329-1.59-1.026-3.494-2.092c-1.904-1.066-3.257-1.917-4.061-2.552c-0.804-0.635-1.414-1.334-1.83-2.1 c-0.415-0.765-0.623-1.607-0.623-2.526c0-1.596 0.613-2.971 1.837-4.126c1.225-1.154 2.784-1.73 4.677-1.73 c1.181 0 2.4 0.3 3.8 0.869c0.613 0.3 1 0.4 1.3 0.41c0.285 0 0.516-0.084 0.698-0.254 c0.18-0.169 0.325-0.511 0.434-1.024H190.003z" class="style1"/><path d="M199.174 15.697v8.794h4.89c1.269 0 2.116-0.192 2.543-0.575c0.568-0.503 0.886-1.389 0.951-2.658 h0.607v7.744h-0.607c-0.153-1.083-0.306-1.778-0.458-2.083c-0.198-0.382-0.521-0.684-0.969-0.903 c-0.449-0.218-1.138-0.328-2.067-0.328h-4.89v7.334c0 1 0 1.6 0.1 1.796c0.089 0.2 0.2 0.4 0.5 0.5 c0.219 0.1 0.6 0.2 1.2 0.189h3.773c1.258 0 2.17-0.088 2.739-0.263c0.569-0.174 1.115-0.52 1.642-1.034 c0.678-0.678 1.372-1.701 2.084-3.068h0.655l-1.92 5.579h-17.144v-0.607h0.788c0.525 0 1.022-0.125 1.493-0.377 c0.349-0.175 0.587-0.438 0.713-0.788c0.126-0.349 0.189-1.065 0.189-2.148V18.354c0-1.411-0.143-2.28-0.427-2.609 c-0.393-0.437-1.05-0.656-1.969-0.656h-0.788v-0.607h17.144l0.247 4.873h-0.641c-0.229-1.17-0.483-1.974-0.762-2.411 c-0.279-0.438-0.692-0.771-1.239-1.001c-0.438-0.164-1.209-0.246-2.314-0.246H199.174z" class="style1"/><path d="M219.067 15.697v8.794h4.891c1.268 0 2.116-0.192 2.543-0.575c0.568-0.503 0.886-1.389 0.95-2.658 h0.608v7.744h-0.608c-0.152-1.083-0.306-1.778-0.458-2.083c-0.198-0.382-0.52-0.684-0.969-0.903 c-0.448-0.218-1.138-0.328-2.066-0.328h-4.891v7.334c0 1 0 1.6 0.1 1.796c0.088 0.2 0.2 0.4 0.5 0.5 c0.218 0.1 0.6 0.2 1.2 0.189h3.773c1.259 0 2.172-0.088 2.74-0.263c0.569-0.174 1.115-0.52 1.642-1.034 c0.678-0.678 1.372-1.701 2.083-3.068h0.656l-1.92 5.579h-17.144v-0.607h0.786c0.525 0 1.023-0.125 1.494-0.377 c0.349-0.175 0.587-0.438 0.713-0.788c0.126-0.349 0.188-1.065 0.188-2.148V18.354c0-1.411-0.142-2.28-0.426-2.609 c-0.394-0.437-1.05-0.656-1.97-0.656h-0.786v-0.607h17.144l0.246 4.873h-0.64c-0.229-1.17-0.483-1.974-0.763-2.411 c-0.278-0.438-0.692-0.771-1.238-1.001c-0.438-0.164-1.209-0.246-2.313-0.246H219.067z" class="style1"/></g><g><path d="M59.28 39.614v6.521h-0.515c-0.167-1.251-0.466-2.247-0.896-2.989 c-0.432-0.741-1.046-1.33-1.842-1.767c-0.797-0.434-1.623-0.653-2.475-0.653c-0.964 0-1.761 0.294-2.391 0.9 c-0.631 0.59-0.946 1.258-0.946 2.01c0 0.6 0.2 1.1 0.6 1.571c0.574 0.7 1.9 1.6 4.1 2.8 c1.761 0.9 3 1.7 3.6 2.176c0.645 0.5 1.1 1.1 1.5 1.787c0.348 0.7 0.5 1.4 0.5 2.2 c0 1.427-0.554 2.657-1.662 3.691c-1.107 1.034-2.533 1.55-4.275 1.55c-0.548 0-1.062-0.042-1.543-0.125 c-0.287-0.046-0.883-0.215-1.787-0.508c-0.904-0.291-1.476-0.438-1.717-0.438c-0.232 0-0.415 0.069-0.549 0.2 c-0.134 0.138-0.234 0.426-0.299 0.861h-0.514v-6.465h0.514c0.241 1.4 0.6 2.4 1 3 c0.408 0.7 1 1.2 1.9 1.676c0.84 0.4 1.8 0.7 2.8 0.668c1.158 0 2.074-0.307 2.746-0.918 c0.672-0.611 1.008-1.335 1.008-2.169c0-0.463-0.127-0.933-0.383-1.404c-0.254-0.472-0.65-0.912-1.188-1.321 c-0.361-0.277-1.349-0.869-2.961-1.773c-1.613-0.904-2.761-1.624-3.441-2.162c-0.682-0.537-1.198-1.131-1.55-1.78 c-0.353-0.648-0.529-1.362-0.529-2.141c0-1.353 0.519-2.519 1.558-3.497c1.038-0.979 2.358-1.468 3.963-1.468 c1 0 2.1 0.2 3.2 0.737c0.518 0.2 0.9 0.3 1.1 0.348c0.24 0 0.438-0.072 0.591-0.216 c0.152-0.144 0.275-0.433 0.368-0.87H59.28z" class="style1"/><path d="M72.222 45.702l0.146 3.095h-0.37c-0.072-0.545-0.169-0.933-0.292-1.167 c-0.201-0.377-0.47-0.655-0.804-0.833c-0.334-0.178-0.773-0.268-1.318-0.268h-1.858v10.083c0 0.8 0.1 1.3 0.3 1.5 c0.246 0.3 0.6 0.4 1.1 0.408h0.457v0.359h-5.597V58.54h0.468c0.559 0 0.954-0.169 1.188-0.506 c0.142-0.208 0.214-0.682 0.214-1.421V46.529H64.27c-0.617 0-1.055 0.045-1.314 0.137c-0.337 0.124-0.626 0.36-0.866 0.7 c-0.24 0.351-0.383 0.824-0.428 1.421h-0.371l0.156-3.095H72.222z" class="style1"/><path d="M80.588 54.481h-5.11l-0.895 2.083c-0.221 0.513-0.331 0.896-0.331 1.1 c0 0.2 0.1 0.4 0.3 0.53c0.19 0.2 0.6 0.3 1.2 0.297v0.359h-4.156V58.54c0.551-0.098 0.909-0.225 1.07-0.379 c0.332-0.312 0.698-0.945 1.1-1.898L78.437 45.4h0.34l4.594 10.979c0.371 0.9 0.7 1.5 1 1.7 c0.301 0.3 0.7 0.4 1.3 0.443v0.359h-5.206V58.54c0.525-0.025 0.881-0.113 1.065-0.263 c0.185-0.149 0.278-0.331 0.278-0.546c0-0.284-0.13-0.735-0.39-1.352L80.588 54.481z M80.315 53.761l-2.238-5.334l-2.297 5.3 H80.315z" class="style1"/><path d="M95.944 45.702l0.147 3.095h-0.37c-0.072-0.545-0.169-0.933-0.292-1.167 c-0.201-0.377-0.469-0.655-0.803-0.833c-0.335-0.178-0.774-0.268-1.319-0.268h-1.859v10.083c0 0.8 0.1 1.3 0.3 1.5 c0.247 0.3 0.6 0.4 1.1 0.408h0.458v0.359H87.71V58.54h0.467c0.559 0 0.954-0.169 1.188-0.506 c0.142-0.208 0.214-0.682 0.214-1.421V46.529h-1.587c-0.617 0-1.055 0.045-1.314 0.137c-0.337 0.124-0.626 0.36-0.866 0.7 c-0.241 0.351-0.383 0.824-0.429 1.421h-0.37l0.156-3.095H95.944z" class="style1"/><path d="M100.596 46.422v5.217h2.9c0.753 0 1.255-0.113 1.509-0.341c0.336-0.297 0.525-0.823 0.564-1.577 h0.36v4.595h-0.36c-0.091-0.644-0.182-1.055-0.273-1.236c-0.117-0.227-0.308-0.405-0.574-0.536 c-0.267-0.129-0.675-0.195-1.227-0.195h-2.9V56.7c0 0.6 0 0.9 0.1 1.066c0.052 0.1 0.1 0.2 0.3 0.3 c0.13 0.1 0.4 0.1 0.7 0.111h2.239c0.747 0 1.288-0.052 1.625-0.156c0.337-0.103 0.661-0.308 0.973-0.612 c0.402-0.402 0.814-1.009 1.236-1.82h0.389l-1.138 3.309H96.839V58.54h0.467c0.312 0 0.607-0.074 0.886-0.225 c0.208-0.104 0.349-0.258 0.424-0.466c0.074-0.208 0.112-0.634 0.112-1.275V48c0-0.837-0.085-1.354-0.254-1.547 c-0.233-0.261-0.622-0.391-1.168-0.391h-0.467v-0.36h10.171l0.146 2.891h-0.379c-0.137-0.694-0.287-1.171-0.453-1.43 c-0.165-0.26-0.41-0.458-0.735-0.594c-0.259-0.097-0.716-0.146-1.372-0.146H100.596z" class="style1"/><path d="M126.531 40.56v-0.514h6.674v0.514h-0.708c-0.743 0-1.312 0.311-1.709 0.9 c-0.195 0.287-0.292 0.954-0.292 2.002v7.647c0 1.89-0.188 3.357-0.563 4.4c-0.376 1.043-1.112 1.938-2.211 2.7 c-1.099 0.745-2.594 1.119-4.484 1.119c-2.058 0-3.62-0.357-4.686-1.071c-1.066-0.713-1.822-1.673-2.267-2.878 c-0.296-0.825-0.444-2.373-0.444-4.644v-7.37c0-1.157-0.16-1.918-0.479-2.279c-0.32-0.361-0.837-0.543-1.551-0.543h-0.709v-0.514 h8.148v0.514h-0.724c-0.778 0-1.334 0.246-1.668 0.737c-0.231 0.334-0.348 1.029-0.348 2.085V51.6 c0 0.7 0.1 1.6 0.2 2.517c0.134 0.9 0.4 1.7 0.7 2.21c0.353 0.5 0.9 1 1.5 1.3 c0.663 0.3 1.5 0.5 2.4 0.515c1.233 0 2.335-0.269 3.309-0.807c0.973-0.538 1.638-1.226 1.996-2.065 c0.356-0.839 0.535-2.26 0.535-4.262v-7.634c0-1.177-0.129-1.913-0.39-2.211c-0.362-0.408-0.899-0.612-1.612-0.612H126.531z" class="style1"/><path d="M131.982 45.702h3.581l8.068 9.899v-7.61c0-0.812-0.091-1.318-0.272-1.519 c-0.241-0.272-0.62-0.409-1.139-0.409h-0.457v-0.36h4.593v0.36h-0.467c-0.559 0-0.954 0.169-1.187 0.5 c-0.144 0.208-0.214 0.682-0.214 1.422v11.124h-0.351l-8.702-10.628v8.127c0 0.8 0.1 1.3 0.3 1.5 c0.246 0.3 0.6 0.4 1.1 0.408h0.467v0.359h-4.593V58.54h0.456c0.566 0 0.964-0.169 1.198-0.506 c0.143-0.208 0.214-0.682 0.214-1.421v-9.178c-0.383-0.448-0.674-0.743-0.872-0.885c-0.198-0.143-0.488-0.276-0.871-0.399 c-0.188-0.058-0.474-0.088-0.856-0.088V45.702z" class="style1"/><path d="M152.763 58.54v0.359h-5.655V58.54h0.467c0.545 0 0.94-0.159 1.187-0.477 c0.156-0.208 0.234-0.708 0.234-1.499v-8.526c0-0.668-0.043-1.109-0.127-1.323c-0.065-0.162-0.198-0.302-0.399-0.418 c-0.285-0.156-0.584-0.234-0.895-0.234h-0.467v-0.36h5.655v0.36h-0.477c-0.539 0-0.932 0.16-1.178 0.5 c-0.162 0.208-0.243 0.708-0.243 1.499v8.526c0 0.7 0 1.1 0.1 1.323c0.065 0.2 0.2 0.3 0.4 0.4 c0.279 0.2 0.6 0.2 0.9 0.232H152.763z" class="style1"/><path d="M167.426 45.702v0.36c-0.467 0.085-0.821 0.234-1.061 0.447c-0.344 0.318-0.649 0.805-0.916 1.5 l-4.603 11.231h-0.36l-4.945-11.378c-0.253-0.584-0.432-0.94-0.536-1.071c-0.162-0.201-0.361-0.358-0.598-0.472 c-0.236-0.113-0.556-0.186-0.958-0.219v-0.36h5.392v0.36c-0.61 0.059-1.006 0.162-1.188 0.312c-0.182 0.15-0.272 0.34-0.272 0.6 c0 0.3 0.1 0.8 0.4 1.518l3.358 7.737l3.115-7.64c0.304-0.753 0.458-1.275 0.458-1.568c0-0.188-0.095-0.368-0.283-0.539 c-0.189-0.172-0.505-0.294-0.955-0.365c-0.032-0.007-0.086-0.017-0.164-0.03v-0.36H167.426z" class="style1"/><path d="M171.861 46.422v5.217h2.899c0.753 0 1.256-0.113 1.509-0.341c0.337-0.297 0.525-0.823 0.564-1.577 h0.36v4.595h-0.36c-0.091-0.644-0.181-1.055-0.272-1.236c-0.117-0.227-0.309-0.405-0.575-0.536 c-0.266-0.129-0.674-0.195-1.227-0.195h-2.899V56.7c0 0.6 0 0.9 0.1 1.066c0.052 0.1 0.1 0.2 0.3 0.3 c0.129 0.1 0.4 0.1 0.7 0.111h2.237c0.746 0 1.289-0.052 1.626-0.156c0.337-0.103 0.663-0.308 0.974-0.612 c0.402-0.402 0.814-1.009 1.236-1.82h0.388l-1.138 3.309h-10.17V58.54h0.466c0.313 0 0.607-0.074 0.887-0.225 c0.207-0.104 0.347-0.258 0.423-0.466c0.074-0.208 0.112-0.634 0.112-1.275V48c0-0.837-0.085-1.354-0.253-1.547 c-0.233-0.261-0.623-0.391-1.168-0.391h-0.466v-0.36h10.17l0.146 2.891h-0.38c-0.136-0.694-0.287-1.171-0.453-1.43 c-0.166-0.26-0.41-0.458-0.734-0.594c-0.26-0.097-0.717-0.146-1.373-0.146H171.861z" class="style1"/><path d="M192.817 58.899h-3.523l-4.466-6.17c-0.333 0.014-0.601 0.02-0.808 0 c-0.085 0-0.176-0.002-0.273-0.005c-0.097-0.003-0.197-0.008-0.302-0.015v3.835c0 0.8 0.1 1.3 0.3 1.5 c0.246 0.3 0.6 0.4 1.1 0.428h0.514v0.359h-5.653V58.54h0.496c0.557 0 0.957-0.182 1.197-0.545 c0.137-0.201 0.205-0.678 0.205-1.431v-8.526c0-0.83-0.091-1.346-0.273-1.547c-0.253-0.285-0.629-0.429-1.128-0.429h-0.496v-0.36 h4.807c1.402 0 2.4 0.1 3.1 0.307c0.664 0.2 1.2 0.6 1.7 1.129c0.464 0.5 0.7 1.2 0.7 2 c0 0.811-0.265 1.515-0.794 2.112c-0.529 0.596-1.348 1.018-2.457 1.264l2.725 3.787c0.624 0.9 1.2 1.4 1.6 1.7 c0.448 0.3 1 0.5 1.8 0.545V58.899z M183.443 52.115c0.124 0 0.2 0 0.3 0 c0.09 0 0.2 0 0.2 0.005c1.259 0 2.208-0.272 2.847-0.817c0.639-0.545 0.959-1.239 0.959-2.082 c0-0.824-0.258-1.494-0.774-2.011c-0.514-0.515-1.198-0.773-2.049-0.773c-0.376 0-0.885 0.062-1.528 0.184V52.115z" class="style1"/><path d="M201.33 45.4v4.564h-0.359c-0.116-0.875-0.326-1.572-0.628-2.092 c-0.301-0.519-0.731-0.931-1.29-1.236c-0.558-0.305-1.136-0.457-1.731-0.457c-0.676 0-1.233 0.206-1.674 0.6 c-0.442 0.412-0.662 0.881-0.662 1.406c0 0.4 0.1 0.8 0.4 1.101c0.402 0.5 1.4 1.1 2.9 1.9 c1.232 0.7 2.1 1.2 2.5 1.523c0.451 0.4 0.8 0.8 1 1.251c0.244 0.5 0.4 1 0.4 1.5 c0 1-0.388 1.861-1.163 2.584c-0.776 0.725-1.772 1.086-2.993 1.086c-0.383 0-0.743-0.029-1.08-0.088 c-0.201-0.033-0.618-0.151-1.251-0.355c-0.632-0.204-1.033-0.307-1.202-0.307c-0.162 0-0.29 0.05-0.384 0.1 c-0.094 0.098-0.164 0.298-0.211 0.604h-0.359v-4.525h0.359c0.169 0.9 0.4 1.7 0.7 2.1 c0.285 0.5 0.7 0.9 1.3 1.173c0.588 0.3 1.2 0.5 1.9 0.467c0.811 0 1.451-0.214 1.921-0.643 c0.472-0.428 0.706-0.934 0.706-1.518c0-0.324-0.089-0.652-0.267-0.983c-0.179-0.331-0.457-0.64-0.832-0.925 c-0.254-0.193-0.945-0.607-2.073-1.24c-1.129-0.633-1.932-1.137-2.41-1.514c-0.476-0.376-0.838-0.792-1.084-1.245 c-0.247-0.455-0.371-0.955-0.371-1.499c0-0.948 0.364-1.764 1.091-2.448c0.728-0.685 1.651-1.027 2.774-1.027 c0.7 0 1.4 0.2 2.2 0.516c0.363 0.2 0.6 0.2 0.8 0.244c0.169 0 0.306-0.05 0.412-0.151 c0.108-0.101 0.193-0.303 0.259-0.608H201.33z" class="style1"/><path d="M208.541 58.54v0.359h-5.655V58.54h0.468c0.545 0 0.94-0.159 1.188-0.477 c0.155-0.208 0.234-0.708 0.234-1.499v-8.526c0-0.668-0.042-1.109-0.127-1.323c-0.065-0.162-0.198-0.302-0.399-0.418 c-0.285-0.156-0.584-0.234-0.896-0.234h-0.468v-0.36h5.655v0.36h-0.477c-0.539 0-0.932 0.16-1.178 0.5 c-0.162 0.208-0.243 0.708-0.243 1.499v8.526c0 0.7 0 1.1 0.1 1.323c0.063 0.2 0.2 0.3 0.4 0.4 c0.279 0.2 0.6 0.2 0.9 0.232H208.541z" class="style1"/><path d="M220.3 45.702l0.145 3.095h-0.37c-0.071-0.545-0.169-0.933-0.291-1.167 c-0.201-0.377-0.469-0.655-0.803-0.833c-0.335-0.178-0.774-0.268-1.319-0.268h-1.859v10.083c0 0.8 0.1 1.3 0.3 1.5 c0.247 0.3 0.6 0.4 1.1 0.408h0.457v0.359h-5.597V58.54h0.468c0.558 0 0.953-0.169 1.188-0.506 c0.143-0.208 0.214-0.682 0.214-1.421V46.529h-1.587c-0.616 0-1.055 0.045-1.313 0.137c-0.338 0.124-0.626 0.36-0.866 0.7 c-0.24 0.351-0.384 0.824-0.428 1.421h-0.37l0.155-3.095H220.3z" class="style1"/><path d="M230.396 45.702h4.605v0.36h-0.254c-0.169 0-0.415 0.075-0.739 0.2 c-0.325 0.15-0.62 0.364-0.886 0.643c-0.267 0.279-0.594 0.733-0.983 1.363l-3.183 5.012v3.31c0 0.8 0.1 1.3 0.3 1.5 c0.246 0.3 0.6 0.4 1.2 0.408h0.428v0.359h-5.605V58.54h0.467c0.559 0 0.954-0.169 1.188-0.506 c0.143-0.208 0.214-0.682 0.214-1.421v-3.125l-3.62-5.528c-0.428-0.648-0.718-1.054-0.871-1.216 c-0.152-0.162-0.468-0.357-0.949-0.584c-0.13-0.065-0.317-0.098-0.564-0.098v-0.36h5.646v0.36h-0.292 c-0.305 0-0.586 0.072-0.843 0.214c-0.256 0.144-0.384 0.357-0.384 0.643c0 0.2 0.2 0.7 0.6 1.265l2.754 4.254l2.59-4.068 c0.388-0.61 0.584-1.065 0.584-1.363c0-0.182-0.048-0.344-0.142-0.486c-0.094-0.142-0.229-0.255-0.404-0.336 c-0.175-0.081-0.438-0.122-0.788-0.122V45.702z" class="style1"/></g><path d="M37.725 56.362V8.058c0-1.772-1.437-3.208-3.208-3.208h-14.67l-0.157-2.559 c0.199-0.122 0.333-0.341 0.333-0.594C20.022 1.3 19.7 1 19.3 1c-0.385 0-0.696 0.312-0.696 0.7 c0 0.3 0.1 0.5 0.3 0.594L18.802 4.85H4.208C2.437 4.8 1 6.3 1 8.058C1 8.1 1 8.1 1 8.17V56.37 c0 1.8 1.4 3.2 3.2 3.209l0 0h30.308c1.771 0 3.208-1.436 3.208-3.209C37.725 56.4 37.7 56.4 37.7 56.362z M33.829 5.537c1.771 0 3.2 1.4 3.2 3.209v24.417l-1.359-2.342v0.001l-1.638-0.513l-9.761-2.65L31.083 29 c-1.727-2.649-3.454-6.755-5.855-8.687c-2.115-1.703-2.683-1.841-4.566-2.439c0.249-0.274 0.426-0.75 0.426-1.149V13.57 c0.259-0.126 0.414-0.281 0.414-0.447c0-0.246-0.329-0.463-0.838-0.604l0.001 0c0 0-0.004-0.001-0.012-0.002 c-0.021-0.006-0.042-0.011-0.063-0.017c-0.101-0.031-0.271-0.102-0.278-0.248c-0.002-0.007-0.005-0.01-0.009-0.014l-0.413-6.699 H33.829z M24.911 58.891l-0.009-15.612l0.011 0.001c0.074-1.371 0.635-2.446 1.403-2.817c0.001 0 0 0 0 0 l0.008 0.002c0 0 0.9-0.179 0.9 2.774c0.03 2.7 0 13.9 0 15.636H24.911z M19.093 7.173l0.269 5.2 c0 0-0.279-0.061-0.54 0L19.093 7.173z M19.362 13.425v4.189c0 0-1.077-0.197-1.077-1.503V13.82 C18.286 13.5 19.4 13.4 19.4 13.425z M18.612 30.962v2.611h-4.197v-2.611l0 0c0 0 0-0.001 0-0.003 c0-0.172 0.14-0.312 0.312-0.312h3.571l0 0c0.173 0 0.3 0.1 0.3 0.312c0 0.002-0.001 0.003-0.001 0.003H18.612z M14.415 36.209V35.67h4.197v0.539H14.415z M18.612 36.812v0.557h-4.197v-0.557H18.612z M14.415 34.644v-0.547h4.197v0.547H14.415z M13.472 29.587v-0.614h5.891v0.614H13.472z M11.827 37.755v-0.583l1.854-1.109v0.589L11.827 37.755z M13.68 37.178v0.616 l-1.854 1.091v-0.61L13.68 37.178z M11.827 36.167v-0.62l1.854-1.123v0.625L11.827 36.167z M11.827 35.028v-2.57l0.004-0.003 c0.014-0.16 0.096-0.331 0.202-0.397l1.439-0.901v0.006c0.107-0.067 0.2 0 0.2 0.148l0.004-0.002v2.59L11.827 35.028z M13.472 28.621v-0.441h5.888v0.441H13.472z M18.838 18.835v8.685h-3.375l1.303-6.35C16.929 20.1 17.7 18.8 18.8 18.835z M16.057 21.037c-0.17 0.808-1.271 6.484-1.271 6.484h-1.793l-4.021 2.769c0 0 4.156-8.4 5.325-9.537 c1.168-1.137 3.363-2.062 3.363-2.062C16.4 19.6 16.2 20.2 16.1 21.037z M12.753 28.468v0.419l-9.089 5.84v-0.4 L12.753 28.468z M12.753 29.28v0.684l-9.089 5.798v-0.654L12.753 29.28z M11.093 34.219v2.71l-2.396 1.457H8.305V35.96 L11.093 34.219z M5.594 41.241v-0.554l1.684-1v0.559L5.594 41.241z M7.278 40.746v0.585l-1.684 0.986v-0.582L7.278 40.746z M5.594 39.729v-0.591l1.684-1.011v0.596L5.594 39.729z M5.594 38.643v-2.444l0.009-0.006c0.018-0.155 0.097-0.317 0.199-0.381 l1.252-0.787c0.004-0.004 0.01-0.011 0.015-0.013c0.107-0.067 0.2 0 0.2 0.155l0.007-0.004v2.465L5.594 38.643z M5.594 42.811l1.684-0.983v17.063H5.597L5.594 42.811z M8.305 39.797l2.788-1.681v1.214c-0.13 0.034-0.263 0.084-0.401 0.2 c-1.065 0.638-1.921 2.453-1.921 4.061l0.012 15.335H8.305V39.797z M9.167 58.891v-14.76c0-2.177 0.634-3.294 1.747-4.097 c0.06-0.042 0.119-0.076 0.179-0.104v0.882c-0.383 0.609-0.765 1.633-0.771 3.32v14.759H9.167z M11.827 39.404l1.854-1.087v20.573 h-1.854V39.404z M14.415 58.891V37.936h4.197v20.956H14.415z M25.376 38.408c-0.887-0.078-2.383 0.575-2.987 1.1 c0.581-1.132 1.794-1.842 3.201-1.718c1.866 0.2 3.4 1.7 3.6 3.565l0.018 0.002v17.555h-0.82l0.055-17.36 C28.244 39.8 27.1 38.6 25.4 38.408z M34.238 41.273v17.587h-1.033V39.821L34.238 41.273z M33.914 37.089v-0.467 l0.387 0.56v0.465L33.914 37.089z M34.472 36.485l-0.839-1.222v-1.4l0.839 1.236V36.485z M34.445 32.997l-0.046-1.189l1.131 1.7 l0.044 1.17L34.445 32.997z M35.265 31.588v-0.435l1.163 1.787v0.43L35.265 31.588z M1.695 55.688V8.746l0 0 c0-1.773 1.437-3.209 3.208-3.209h13.856l-0.417 6.698c-0.003 0.005-0.007 0.008-0.007 0.015c-0.009 0.146-0.178 0.217-0.279 0.2 c-0.022 0.006-0.042 0.011-0.064 0.017c-0.006 0.002-0.011 0.002-0.011 0.002l0.001 0c-0.509 0.141-0.838 0.358-0.838 0.6 c0 0.2 0.2 0.3 0.4 0.447v3.156c0 0.4 0.2 0.9 0.4 1.163c-1.357 0.615-3.371 1.604-4.143 2.4 c-1.915 2.008-4.977 9.383-6.54 11.084l-4.398 2.815v1.742l1.838 2.737l-0.013 1.482l-0.231 0.151v0.748l0.231 0.342L4.683 58.9 C3.015 58.8 1.7 57.4 1.7 55.688z M35.099 58.628V40.417l0.44-0.279v-0.749l-0.44-0.75v-2.944l1.092-0.776v-0.937 l0.846-0.353v22.014c0 0 0 0 0 0.038C37.038 57 36.2 58.1 35.1 58.628z" class="style1"/></g></svg>